<svg width="38" height="38" viewBox="0 0 38 38" fill="none" xmlns="http://www.w3.org/2000/svg">
<circle cx="19" cy="19" r="18" stroke="#E62F5F" stroke-width="2"/>
<path d="M25.3782 18.8535L25.4009 18.6597C25.4009 18.584 25.3989 18.5088 25.3961 18.4338C25.3992 18.3884 25.4009 18.3388 25.4009 18.2849V17.8312V17.7916V16.5915C25.4009 14.3442 24.4853 11.3388 20.7039 11.1509V11.1416H18.9306C14.8303 11.1416 13.6856 13.8605 13.6856 16.4007V18.3137C13.6856 18.5038 13.7472 18.6849 13.8344 18.7822L13.843 18.8558H13.8429C13.2837 18.9648 12.8613 19.4578 12.8613 20.0491C12.8613 20.7203 13.4057 21.2648 14.0766 21.2648C14.093 21.2648 14.1088 21.263 14.125 21.2624L14.1782 21.716C14.1782 23.3623 14.9104 24.8374 16.0668 25.8337C17.0195 26.6619 18.2637 27.1636 19.6252 27.1636C22.6214 27.1636 25.0516 24.7341 25.0516 21.7374L25.066 21.523L25.0966 21.2614C25.1188 21.2626 25.1408 21.2648 25.1634 21.2648C25.8343 21.2648 26.3786 20.7202 26.3786 20.049C26.3786 19.4514 25.9465 18.9552 25.3782 18.8535Z" fill="black"/>
<path d="M27.3357 17.7785C26.8969 17.4963 26.3579 17.2009 25.7101 16.927L24.0859 8.74108C24.0218 8.41827 23.7422 8.19604 23.4296 8.18885C23.3329 8.18661 23.2378 8.21293 23.1496 8.25273C22.7323 8.44109 20.9441 9.2066 19.4404 9.2066C17.9154 9.2066 15.9945 8.41827 15.5886 8.24406C15.5227 8.21576 15.4536 8.19442 15.382 8.1902C15.0391 8.16999 14.724 8.41117 14.6661 8.76358L13.3134 16.9885C12.6208 17.285 12.0379 17.6061 11.5591 17.9129C11.2318 18.1226 11.4693 18.9237 11.8392 18.8043C13.4399 18.2876 16.0032 18.1967 19.5529 18.1967C23.1072 18.1967 25.5622 18.2187 27.0618 18.6719C27.4303 18.7832 27.6595 17.9867 27.3357 17.7785Z" fill="#2B3B47"/>
<path d="M26.896 27.2375L27.8821 23.6939C28.0389 23.1294 27.6376 22.5716 27.1894 22.7321L24.8739 23.5657C24.8173 23.5847 24.7592 23.5879 24.6983 23.6328H24.6983L24.0075 23.8761C20.6537 25.0032 17.7909 24.845 14.0774 23.515L11.897 22.7331C11.4489 22.5726 11.0466 23.1299 11.2035 23.6944L12.1651 27.1523C10.9123 27.8492 9.97656 28.9543 9.97656 30.6863V30.6881C9.97656 30.7859 10.0538 30.8652 10.1516 30.8652H28.7637C28.8614 30.8652 28.9336 30.7859 28.9336 30.6882V30.6863C28.9336 29.0233 28.0736 27.9383 26.896 27.2375Z" fill="#2B3B47"/>
</svg>
