<svg width="19" height="11" viewBox="0 0 19 11" fill="none" xmlns="http://www.w3.org/2000/svg">
<path d="M15.6329 2.73737C11.993 -0.912456 6.07104 -0.912456 2.43117 2.73737L0 5.17488L2.49149 7.67318C4.31127 9.49794 6.70172 10.4106 9.09248 10.4106C11.4832 10.4106 13.8734 9.49825 15.6935 7.67318L18.1247 5.23536L15.6329 2.73737ZM15.2603 7.2391C11.8592 10.6492 6.32546 10.6492 2.92439 7.2391L0.865805 5.17488L2.86408 3.17115C6.26515 -0.238916 11.7989 -0.238916 15.2 3.17115L17.2585 5.23536L15.2603 7.2391Z" fill="#818181"/>
<path d="M8.74745 2.74023C7.5657 2.74023 6.60437 3.70419 6.60437 4.88918C6.60437 5.05864 6.74153 5.19617 6.91053 5.19617C7.07952 5.19617 7.21668 5.05864 7.21668 4.88918C7.21668 4.0428 7.90339 3.35422 8.74745 3.35422C8.91645 3.35422 9.05361 3.21669 9.05361 3.04723C9.05361 2.87777 8.91676 2.74023 8.74745 2.74023Z" fill="#818181"/>
<path d="M9.05362 1.20508C6.8591 1.20508 5.07361 2.99545 5.07361 5.19597C5.07361 7.39649 6.8591 9.18686 9.05362 9.18686C11.2481 9.18686 13.0336 7.39649 13.0336 5.19597C13.0336 2.99545 11.2484 1.20508 9.05362 1.20508ZM9.05362 8.57288C7.19679 8.57288 5.68592 7.05788 5.68592 5.19597C5.68592 3.33407 7.19679 1.81906 9.05362 1.81906C10.9104 1.81906 12.4213 3.33407 12.4213 5.19597C12.4213 7.05788 10.9108 8.57288 9.05362 8.57288Z" fill="#818181"/>
</svg>
