<svg width="22" height="13" viewBox="0 0 22 13" fill="none" xmlns="http://www.w3.org/2000/svg">
<path d="M18.9757 3.31366C14.5575 -1.10455 7.36926 -1.10455 2.95105 3.31366L0 6.26433L3.02426 9.28859C5.23317 11.4975 8.1348 12.6023 11.0368 12.6023C13.9388 12.6023 16.84 11.4979 19.0493 9.28859L22.0004 6.33754L18.9757 3.31366ZM18.5235 8.76311C14.3951 12.8911 7.67807 12.8911 3.54973 8.76311L1.05095 6.26433L3.47652 3.83876C7.60486 -0.289214 14.3219 -0.289214 18.4503 3.83876L20.9491 6.33754L18.5235 8.76311Z" fill="#818181"/>
<path d="M10.618 3.317C9.18349 3.317 8.0166 4.48389 8.0166 5.91835C8.0166 6.12349 8.18309 6.28997 8.38822 6.28997C8.59336 6.28997 8.75985 6.12349 8.75985 5.91835C8.75985 4.89379 9.59339 4.06024 10.618 4.06024C10.8231 4.06024 10.9896 3.89376 10.9896 3.68862C10.9896 3.48349 10.8235 3.317 10.618 3.317Z" fill="#818181"/>
<path d="M10.8311 1C8.1673 1 6 3.1673 6 5.83108C6 8.49486 8.1673 10.6622 10.8311 10.6622C13.4949 10.6622 15.6622 8.49486 15.6622 5.83108C15.6622 3.1673 13.4952 1 10.8311 1ZM10.8311 9.91892C8.5772 9.91892 6.74324 8.08497 6.74324 5.83108C6.74324 3.5772 8.5772 1.74324 10.8311 1.74324C13.085 1.74324 14.9189 3.5772 14.9189 5.83108C14.9189 8.08497 13.0853 9.91892 10.8311 9.91892Z" fill="#818181"/>
</svg>
