<svg width="35" height="35" viewBox="0 0 35 35" fill="none" xmlns="http://www.w3.org/2000/svg">
<path d="M17.5 35C7.83502 35 0 27.165 0 17.5C0 7.83502 7.83502 0 17.5 0C27.165 0 35 7.83502 35 17.5C34.9894 27.1606 27.1606 34.9894 17.5 35ZM17.5 3.5C9.80945 3.50195 3.56031 9.70701 3.50392 17.3974C3.44753 25.0877 9.60502 31.3837 17.2947 31.4984C24.9844 31.6132 31.327 25.5036 31.5 17.815V20.9353V17.5C31.4913 9.77161 25.2284 3.50868 17.5 3.5ZM20.0375 26.075L11.375 17.4125L20.0375 8.75L22.512 11.2245L16.324 17.4125L22.5103 23.6005L20.0392 26.075H20.0375Z" fill="#2E3A59"/>
</svg>
