<svg width="35" height="35" viewBox="0 0 35 35" fill="none" xmlns="http://www.w3.org/2000/svg">
<g clip-path="url(#clip0)">
<path d="M17.5017 35.1409C7.8402 35.1303 0.0106102 27.3015 0 17.6409V17.2909C0.192399 7.67382 8.11134 0.0148243 17.7304 0.142441C27.3496 0.270058 35.0625 8.13644 34.9996 17.7552C34.9368 27.374 27.1217 35.1389 17.5017 35.1409ZM17.5017 3.6409C9.76899 3.6409 3.50035 9.90891 3.50035 17.6409C3.50035 25.3729 9.76899 31.6409 17.5017 31.6409C25.2345 31.6409 31.5031 25.3729 31.5031 17.6409C31.4945 9.9125 25.2309 3.64958 17.5017 3.6409ZM14.964 26.3909L12.4892 23.9146L18.6761 17.7284L12.4892 11.5421L14.964 9.06589L23.6274 17.7284L14.9657 26.3909H14.964Z" fill="#2E3A59"/>
</g>
<defs>
<clipPath id="clip0">
<rect width="35" height="35" fill="white"/>
</clipPath>
</defs>
</svg>
