<svg width="438" height="47" viewBox="0 0 438 47" fill="none" xmlns="http://www.w3.org/2000/svg">
<path d="M49.944 7.272H53.016V24H49.944V7.272ZM68.8089 7.272V24.336H68.5689L60.5529 15.192L59.8089 14.232L59.9289 16.56V24H56.9769V6.984H57.2409L65.1369 16.2L65.9769 17.292L65.8569 15V7.272H68.8089ZM76.9241 24.264C76.1801 24.264 75.4761 24.176 74.8121 24C74.1561 23.824 73.5801 23.596 73.0841 23.316C72.5881 23.036 72.1961 22.744 71.9081 22.44L73.1321 19.92C73.3161 20.16 73.5961 20.416 73.9721 20.688C74.3481 20.96 74.7761 21.192 75.2561 21.384C75.7441 21.576 76.2281 21.672 76.7081 21.672C77.3401 21.672 77.8681 21.5 78.2921 21.156C78.7241 20.804 78.9401 20.312 78.9401 19.68C78.9401 19.272 78.8401 18.92 78.6401 18.624C78.4481 18.32 78.1881 18.052 77.8601 17.82C77.5401 17.58 77.0441 17.256 76.3721 16.848C75.4521 16.288 74.7321 15.812 74.2121 15.42C73.6921 15.02 73.2401 14.5 72.8561 13.86C72.4801 13.212 72.2921 12.432 72.2921 11.52C72.2921 10.632 72.4801 9.848 72.8561 9.168C73.2401 8.48 73.8041 7.944 74.5481 7.56C75.2921 7.176 76.1881 6.984 77.2361 6.984C78.9401 6.984 80.3641 7.504 81.5081 8.544L80.1641 10.992C80.0281 10.8 79.8241 10.592 79.5521 10.368C79.2801 10.136 78.9521 9.94 78.5681 9.78C78.1841 9.612 77.7801 9.528 77.3561 9.528C76.7401 9.528 76.2601 9.708 75.9161 10.068C75.5801 10.42 75.4121 10.864 75.4121 11.4C75.4121 11.808 75.5121 12.172 75.7121 12.492C75.9201 12.804 76.1881 13.084 76.5161 13.332C76.8521 13.58 77.3001 13.872 77.8601 14.208C78.8761 14.808 79.6521 15.312 80.1881 15.72C80.7241 16.128 81.1721 16.648 81.5321 17.28C81.9001 17.904 82.0841 18.672 82.0841 19.584C82.0841 20.552 81.8761 21.388 81.4601 22.092C81.0441 22.796 80.4481 23.336 79.6721 23.712C78.8961 24.08 77.9801 24.264 76.9241 24.264ZM94.1779 9.984H90.3139V24H87.2179V9.984H83.3539V7.272H94.1779V9.984ZM103.589 21.576H97.6134L96.7254 24H93.3654L100.445 6.984H100.685L107.789 24H104.525L103.589 21.576ZM102.701 19.248L100.949 14.688L100.541 13.344L100.157 14.688L98.4774 19.248H102.701ZM113.487 24.264C112.743 24.264 112.039 24.176 111.375 24C110.719 23.824 110.143 23.596 109.647 23.316C109.151 23.036 108.759 22.744 108.471 22.44L109.695 19.92C109.879 20.16 110.159 20.416 110.535 20.688C110.911 20.96 111.339 21.192 111.819 21.384C112.307 21.576 112.791 21.672 113.271 21.672C113.903 21.672 114.431 21.5 114.855 21.156C115.287 20.804 115.503 20.312 115.503 19.68C115.503 19.272 115.403 18.92 115.203 18.624C115.011 18.32 114.751 18.052 114.423 17.82C114.103 17.58 113.607 17.256 112.935 16.848C112.015 16.288 111.295 15.812 110.775 15.42C110.255 15.02 109.803 14.5 109.419 13.86C109.043 13.212 108.855 12.432 108.855 11.52C108.855 10.632 109.043 9.848 109.419 9.168C109.803 8.48 110.367 7.944 111.111 7.56C111.855 7.176 112.751 6.984 113.799 6.984C115.503 6.984 116.927 7.504 118.071 8.544L116.727 10.992C116.591 10.8 116.387 10.592 116.115 10.368C115.843 10.136 115.515 9.94 115.131 9.78C114.747 9.612 114.343 9.528 113.919 9.528C113.303 9.528 112.823 9.708 112.479 10.068C112.143 10.42 111.975 10.864 111.975 11.4C111.975 11.808 112.075 12.172 112.275 12.492C112.483 12.804 112.751 13.084 113.079 13.332C113.415 13.58 113.863 13.872 114.423 14.208C115.439 14.808 116.215 15.312 116.751 15.72C117.287 16.128 117.735 16.648 118.095 17.28C118.463 17.904 118.647 18.672 118.647 19.584C118.647 20.552 118.439 21.388 118.023 22.092C117.607 22.796 117.011 23.336 116.235 23.712C115.459 24.08 114.543 24.264 113.487 24.264ZM130.644 21.288V24H121.428V7.272H130.164V9.888H124.428V13.8H128.988V16.344H124.428V21.288H130.644ZM139.305 24.288C138.097 24.288 136.977 23.964 135.945 23.316C134.913 22.66 134.081 21.664 133.449 20.328C132.825 18.992 132.513 17.352 132.513 15.408C132.513 13.64 132.825 12.124 133.449 10.86C134.073 9.588 134.917 8.624 135.981 7.968C137.053 7.312 138.249 6.984 139.569 6.984C140.377 6.984 141.061 7.064 141.621 7.224C142.181 7.376 142.621 7.556 142.941 7.764C143.261 7.964 143.569 8.2 143.865 8.472L142.521 10.992C142.241 10.688 141.993 10.456 141.777 10.296C141.561 10.128 141.285 9.996 140.949 9.9C140.621 9.796 140.201 9.744 139.689 9.744C138.889 9.744 138.201 9.98 137.625 10.452C137.049 10.916 136.609 11.564 136.305 12.396C136.001 13.22 135.849 14.168 135.849 15.24C135.849 16.584 136.005 17.732 136.317 18.684C136.637 19.636 137.065 20.352 137.601 20.832C138.145 21.312 138.753 21.552 139.425 21.552C140.137 21.552 140.765 21.452 141.309 21.252C141.861 21.052 142.281 20.8 142.569 20.496L143.889 22.872C143.401 23.272 142.809 23.608 142.113 23.88C141.425 24.152 140.489 24.288 139.305 24.288ZM153.641 24L149.345 17.952V24H146.297V7.272H150.953C154.921 7.272 156.905 9.048 156.905 12.6C156.905 13.392 156.777 14.172 156.521 14.94C156.265 15.7 155.845 16.376 155.261 16.968C154.685 17.56 153.945 17.968 153.041 18.192L157.361 24H153.641ZM150.617 16.44C151.297 16.44 151.877 16.28 152.357 15.96C152.845 15.632 153.213 15.2 153.461 14.664C153.709 14.12 153.833 13.528 153.833 12.888C153.833 11.784 153.577 10.972 153.065 10.452C152.561 9.932 151.721 9.672 150.545 9.672H149.345V16.44H150.617ZM169.293 21.288V24H160.077V7.272H168.813V9.888H163.077V13.8H167.637V16.344H163.077V21.288H169.293ZM181.529 9.984H177.665V24H174.569V9.984H170.705V7.272H181.529V9.984ZM180.965 20.424H183.773V24H180.965V20.424ZM191.636 24.288C190.412 24.288 189.392 24.012 188.576 23.46C187.76 22.9 187.156 22.152 186.764 21.216C186.38 20.28 186.188 19.232 186.188 18.072C186.188 16.936 186.404 15.888 186.836 14.928C187.268 13.968 187.908 13.2 188.756 12.624C189.604 12.048 190.62 11.76 191.804 11.76C192.54 11.76 193.18 11.84 193.724 12C194.276 12.152 194.804 12.432 195.308 12.84L194.324 15.384C194.092 15.04 193.748 14.768 193.292 14.568C192.844 14.36 192.404 14.256 191.972 14.256C190.228 14.256 189.356 15.52 189.356 18.048C189.356 19.368 189.568 20.332 189.992 20.94C190.424 21.54 191.084 21.84 191.972 21.84C192.508 21.84 192.996 21.74 193.436 21.54C193.884 21.34 194.236 21.096 194.492 20.808L195.404 22.944C195.228 23.136 194.96 23.336 194.6 23.544C194.248 23.744 193.816 23.916 193.304 24.06C192.792 24.212 192.236 24.288 191.636 24.288ZM202.512 24.24C201.344 24.24 200.348 23.992 199.524 23.496C198.7 23 198.072 22.288 197.64 21.36C197.208 20.424 196.992 19.304 196.992 18C196.992 16.696 197.212 15.576 197.652 14.64C198.1 13.704 198.744 12.992 199.584 12.504C200.432 12.008 201.44 11.76 202.608 11.76C203.768 11.76 204.752 12.016 205.56 12.528C206.376 13.032 206.992 13.752 207.408 14.688C207.824 15.624 208.032 16.728 208.032 18C208.032 19.264 207.816 20.368 207.384 21.312C206.952 22.248 206.32 22.972 205.488 23.484C204.664 23.988 203.672 24.24 202.512 24.24ZM202.56 21.84C203.304 21.84 203.868 21.516 204.252 20.868C204.644 20.22 204.84 19.264 204.84 18C204.84 16.728 204.644 15.768 204.252 15.12C203.868 14.464 203.304 14.136 202.56 14.136C201.776 14.136 201.184 14.444 200.784 15.06C200.384 15.676 200.184 16.656 200.184 18C200.184 19.344 200.384 20.32 200.784 20.928C201.184 21.536 201.776 21.84 202.56 21.84ZM224.111 11.76C225.287 11.76 226.175 12.14 226.775 12.9C227.383 13.652 227.687 14.72 227.687 16.104V24H224.639V16.416C224.639 15.72 224.503 15.176 224.231 14.784C223.967 14.384 223.559 14.184 223.007 14.184C222.631 14.184 222.271 14.28 221.927 14.472C221.591 14.664 221.319 14.932 221.111 15.276C220.903 15.612 220.799 15.992 220.799 16.416V24H217.727V16.416C217.727 15.736 217.575 15.188 217.271 14.772C216.975 14.348 216.551 14.136 215.999 14.136C215.615 14.136 215.263 14.236 214.943 14.436C214.623 14.628 214.367 14.9 214.175 15.252C213.983 15.596 213.887 15.984 213.887 16.416V24H210.815V12.048H213.575L213.647 13.632C214.455 12.384 215.631 11.76 217.175 11.76C217.975 11.76 218.643 11.936 219.179 12.288C219.723 12.64 220.131 13.152 220.403 13.824C221.219 12.448 222.455 11.76 224.111 11.76ZM53.642 32.97C52.5687 32.97 51.724 33.3293 51.108 34.048C50.492 34.7667 50.184 35.7513 50.184 37.002C50.184 38.2433 50.4687 39.228 51.038 39.956C51.6167 40.6747 52.48 41.034 53.628 41.034C54.0667 41.034 54.482 40.9967 54.874 40.922C55.266 40.8473 55.6487 40.754 56.022 40.642V41.734C55.6487 41.874 55.2613 41.9767 54.86 42.042C54.468 42.1073 53.9967 42.14 53.446 42.14C52.4287 42.14 51.5793 41.93 50.898 41.51C50.2167 41.09 49.7033 40.4927 49.358 39.718C49.022 38.9433 48.854 38.0333 48.854 36.988C48.854 35.98 49.036 35.0933 49.4 34.328C49.7733 33.5533 50.3193 32.9513 51.038 32.522C51.7567 32.0833 52.6293 31.864 53.656 31.864C54.7107 31.864 55.63 32.06 56.414 32.452L55.91 33.516C55.602 33.376 55.2567 33.25 54.874 33.138C54.5007 33.026 54.09 32.97 53.642 32.97ZM66.0857 34.496V42H64.9797V37.212C64.9797 37.016 64.9844 36.8107 64.9937 36.596C65.0124 36.3813 65.031 36.1713 65.0497 35.966H65.0077L62.5577 42H61.5217L59.1417 35.966H59.0997C59.1277 36.386 59.1417 36.8153 59.1417 37.254V42H58.0357V34.496H59.6737L62.0397 40.53L64.4477 34.496H66.0857ZM75.005 38.234C75.005 39.4753 74.6877 40.4367 74.053 41.118C73.4277 41.7993 72.5783 42.14 71.505 42.14C70.8423 42.14 70.2497 41.9907 69.727 41.692C69.2137 41.384 68.8077 40.9407 68.509 40.362C68.2103 39.774 68.061 39.0647 68.061 38.234C68.061 36.9927 68.3737 36.036 68.999 35.364C69.6243 34.692 70.4737 34.356 71.547 34.356C72.2283 34.356 72.8257 34.51 73.339 34.818C73.8617 35.1167 74.2677 35.5553 74.557 36.134C74.8557 36.7033 75.005 37.4033 75.005 38.234ZM69.335 38.234C69.335 39.1207 69.5077 39.8253 69.853 40.348C70.2077 40.8613 70.7677 41.118 71.533 41.118C72.289 41.118 72.8443 40.8613 73.199 40.348C73.5537 39.8253 73.731 39.1207 73.731 38.234C73.731 37.3473 73.5537 36.652 73.199 36.148C72.8443 35.644 72.2843 35.392 71.519 35.392C70.7537 35.392 70.1983 35.644 69.853 36.148C69.5077 36.652 69.335 37.3473 69.335 38.234ZM82.0009 35.532H79.5509V42H78.3329V35.532H75.9109V34.496H82.0009V35.532ZM87.0491 34.356C87.9731 34.356 88.7151 34.678 89.2751 35.322C89.8444 35.966 90.1291 36.9367 90.1291 38.234C90.1291 39.5127 89.8444 40.4833 89.2751 41.146C88.7151 41.8087 87.9684 42.14 87.0351 42.14C86.4564 42.14 85.9757 42.0327 85.5931 41.818C85.2197 41.594 84.9257 41.3373 84.7111 41.048H84.6271C84.6457 41.2067 84.6644 41.4073 84.6831 41.65C84.7017 41.8927 84.7111 42.1027 84.7111 42.28V45.36H83.4791V34.496H84.4871L84.6551 35.518H84.7111C84.9351 35.1913 85.2291 34.916 85.5931 34.692C85.9571 34.468 86.4424 34.356 87.0491 34.356ZM86.8251 35.392C86.0597 35.392 85.5184 35.6067 85.2011 36.036C84.8931 36.4653 84.7297 37.1187 84.7111 37.996V38.234C84.7111 39.158 84.8604 39.872 85.1591 40.376C85.4671 40.8707 86.0317 41.118 86.8531 41.118C87.3104 41.118 87.6837 40.992 87.9731 40.74C88.2717 40.488 88.4911 40.1473 88.6311 39.718C88.7804 39.2793 88.8551 38.78 88.8551 38.22C88.8551 37.3613 88.6871 36.6753 88.3511 36.162C88.0244 35.6487 87.5157 35.392 86.8251 35.392ZM93.2543 39.074C93.2543 39.186 93.2497 39.354 93.2403 39.578C93.231 39.802 93.217 40.026 93.1983 40.25C93.189 40.474 93.1797 40.6513 93.1703 40.782L97.1883 34.496H98.7003V42H97.5523V37.576C97.5523 37.4267 97.5523 37.2307 97.5523 36.988C97.5617 36.7453 97.571 36.5073 97.5803 36.274C97.5897 36.0313 97.599 35.8493 97.6083 35.728L93.6183 42H92.0923V34.496H93.2543V39.074ZM106.268 35.532H103.818V42H102.6V35.532H100.178V34.496H106.268V35.532ZM110.508 34.356C111.152 34.356 111.703 34.496 112.16 34.776C112.627 35.056 112.981 35.4527 113.224 35.966C113.476 36.47 113.602 37.0627 113.602 37.744V38.486H108.464C108.483 39.3353 108.697 39.984 109.108 40.432C109.528 40.8707 110.111 41.09 110.858 41.09C111.334 41.09 111.754 41.048 112.118 40.964C112.491 40.8707 112.874 40.74 113.266 40.572V41.65C112.883 41.818 112.505 41.9393 112.132 42.014C111.759 42.098 111.315 42.14 110.802 42.14C110.093 42.14 109.463 41.9953 108.912 41.706C108.371 41.4167 107.946 40.9873 107.638 40.418C107.339 39.8393 107.19 39.1347 107.19 38.304C107.19 37.4827 107.325 36.778 107.596 36.19C107.876 35.602 108.263 35.1493 108.758 34.832C109.262 34.5147 109.845 34.356 110.508 34.356ZM110.494 35.364C109.906 35.364 109.439 35.5553 109.094 35.938C108.758 36.3113 108.557 36.834 108.492 37.506H112.314C112.305 36.8713 112.155 36.358 111.866 35.966C111.577 35.5647 111.119 35.364 110.494 35.364ZM119.34 39.074C119.34 39.186 119.336 39.354 119.326 39.578C119.317 39.802 119.303 40.026 119.284 40.25C119.275 40.474 119.266 40.6513 119.256 40.782L123.274 34.496H124.786V42H123.638V37.576C123.638 37.4267 123.638 37.2307 123.638 36.988C123.648 36.7453 123.657 36.5073 123.666 36.274C123.676 36.0313 123.685 35.8493 123.694 35.728L119.704 42H118.178V34.496H119.34V39.074ZM132.85 42.14C132.188 42.14 131.595 42.0047 131.072 41.734C130.559 41.4633 130.153 41.0433 129.854 40.474C129.565 39.9047 129.42 39.1767 129.42 38.29C129.42 37.366 129.574 36.6147 129.882 36.036C130.19 35.4573 130.606 35.0327 131.128 34.762C131.66 34.4913 132.262 34.356 132.934 34.356C133.317 34.356 133.686 34.398 134.04 34.482C134.395 34.5567 134.684 34.65 134.908 34.762L134.53 35.784C134.306 35.7 134.045 35.6207 133.746 35.546C133.448 35.4713 133.168 35.434 132.906 35.434C131.432 35.434 130.694 36.3813 130.694 38.276C130.694 39.1813 130.872 39.8767 131.226 40.362C131.59 40.838 132.127 41.076 132.836 41.076C133.247 41.076 133.606 41.034 133.914 40.95C134.232 40.866 134.521 40.7633 134.782 40.642V41.734C134.53 41.8647 134.25 41.9627 133.942 42.028C133.644 42.1027 133.28 42.14 132.85 42.14ZM141.005 34.496H142.349L139.143 38.108L142.615 42H141.187L137.799 38.192V42H136.567V34.496H137.799V38.136L141.005 34.496ZM146.819 34.37C147.734 34.37 148.41 34.5707 148.849 34.972C149.288 35.3733 149.507 36.0127 149.507 36.89V42H148.611L148.373 40.936H148.317C147.99 41.3467 147.645 41.65 147.281 41.846C146.926 42.042 146.432 42.14 145.797 42.14C145.116 42.14 144.551 41.9627 144.103 41.608C143.655 41.244 143.431 40.6793 143.431 39.914C143.431 39.1673 143.725 38.5933 144.313 38.192C144.901 37.7813 145.806 37.5573 147.029 37.52L148.303 37.478V37.03C148.303 36.4047 148.168 35.9707 147.897 35.728C147.626 35.4853 147.244 35.364 146.749 35.364C146.357 35.364 145.984 35.4247 145.629 35.546C145.274 35.658 144.943 35.7887 144.635 35.938L144.257 35.014C144.584 34.8367 144.971 34.6873 145.419 34.566C145.867 34.4353 146.334 34.37 146.819 34.37ZM147.183 38.374C146.25 38.4113 145.601 38.5607 145.237 38.822C144.882 39.0833 144.705 39.452 144.705 39.928C144.705 40.348 144.831 40.656 145.083 40.852C145.344 41.048 145.676 41.146 146.077 41.146C146.712 41.146 147.239 40.9733 147.659 40.628C148.079 40.2733 148.289 39.732 148.289 39.004V38.332L147.183 38.374ZM152.903 37.226C152.903 38.0847 153.383 38.514 154.345 38.514C154.811 38.514 155.236 38.444 155.619 38.304C156.001 38.1547 156.393 37.9587 156.795 37.716V34.496H158.027V42H156.795V38.654C156.375 38.9247 155.959 39.1393 155.549 39.298C155.147 39.4473 154.662 39.522 154.093 39.522C153.327 39.522 152.73 39.3213 152.301 38.92C151.881 38.5187 151.671 37.982 151.671 37.31V34.496H152.903V37.226ZM161.573 39.074C161.573 39.186 161.568 39.354 161.559 39.578C161.549 39.802 161.535 40.026 161.517 40.25C161.507 40.474 161.498 40.6513 161.489 40.782L165.507 34.496H167.019V42H165.871V37.576C165.871 37.4267 165.871 37.2307 165.871 36.988C165.88 36.7453 165.889 36.5073 165.899 36.274C165.908 36.0313 165.917 35.8493 165.927 35.728L161.937 42H160.411V34.496H161.573V39.074ZM175.441 36.386C175.441 36.8527 175.301 37.2167 175.021 37.478C174.741 37.7393 174.381 37.9167 173.943 38.01V38.066C174.409 38.1313 174.815 38.2993 175.161 38.57C175.506 38.8313 175.679 39.242 175.679 39.802C175.679 40.4367 175.441 40.964 174.965 41.384C174.498 41.7947 173.723 42 172.641 42H169.407V34.496H172.627C173.159 34.496 173.635 34.5567 174.055 34.678C174.484 34.79 174.82 34.986 175.063 35.266C175.315 35.5367 175.441 35.91 175.441 36.386ZM174.195 36.54C174.195 36.1853 174.064 35.9287 173.803 35.77C173.551 35.602 173.135 35.518 172.557 35.518H170.639V37.576H172.333C173.574 37.576 174.195 37.2307 174.195 36.54ZM174.405 39.802C174.405 39.3727 174.241 39.0647 173.915 38.878C173.588 38.6913 173.107 38.598 172.473 38.598H170.639V41.006H172.501C173.117 41.006 173.588 40.9173 173.915 40.74C174.241 40.5533 174.405 40.2407 174.405 39.802ZM180.315 34.37C181.23 34.37 181.907 34.5707 182.345 34.972C182.784 35.3733 183.003 36.0127 183.003 36.89V42H182.107L181.869 40.936H181.813C181.487 41.3467 181.141 41.65 180.777 41.846C180.423 42.042 179.928 42.14 179.293 42.14C178.612 42.14 178.047 41.9627 177.599 41.608C177.151 41.244 176.927 40.6793 176.927 39.914C176.927 39.1673 177.221 38.5933 177.809 38.192C178.397 37.7813 179.303 37.5573 180.525 37.52L181.799 37.478V37.03C181.799 36.4047 181.664 35.9707 181.393 35.728C181.123 35.4853 180.74 35.364 180.245 35.364C179.853 35.364 179.48 35.4247 179.125 35.546C178.771 35.658 178.439 35.7887 178.131 35.938L177.753 35.014C178.08 34.8367 178.467 34.6873 178.915 34.566C179.363 34.4353 179.83 34.37 180.315 34.37ZM180.679 38.374C179.746 38.4113 179.097 38.5607 178.733 38.822C178.379 39.0833 178.201 39.452 178.201 39.928C178.201 40.348 178.327 40.656 178.579 40.852C178.841 41.048 179.172 41.146 179.573 41.146C180.208 41.146 180.735 40.9733 181.155 40.628C181.575 40.2733 181.785 39.732 181.785 39.004V38.332L180.679 38.374ZM191.397 31.388C191.332 32.088 191.094 32.62 190.683 32.984C190.282 33.3387 189.638 33.516 188.751 33.516C187.836 33.516 187.188 33.3387 186.805 32.984C186.432 32.6293 186.222 32.0973 186.175 31.388H187.323C187.37 31.892 187.5 32.2327 187.715 32.41C187.939 32.578 188.294 32.662 188.779 32.662C189.208 32.662 189.544 32.5733 189.787 32.396C190.039 32.2093 190.188 31.8733 190.235 31.388H191.397ZM186.483 39.074C186.483 39.186 186.478 39.354 186.469 39.578C186.46 39.802 186.446 40.026 186.427 40.25C186.418 40.474 186.408 40.6513 186.399 40.782L190.417 34.496H191.929V42H190.781V37.576C190.781 37.4267 190.781 37.2307 190.781 36.988C190.79 36.7453 190.8 36.5073 190.809 36.274C190.818 36.0313 190.828 35.8493 190.837 35.728L186.847 42H185.321V34.496H186.483V39.074ZM199.497 35.532H197.047V42H195.829V35.532H193.407V34.496H199.497V35.532ZM203.736 34.356C204.38 34.356 204.931 34.496 205.388 34.776C205.855 35.056 206.21 35.4527 206.452 35.966C206.704 36.47 206.83 37.0627 206.83 37.744V38.486H201.692C201.711 39.3353 201.926 39.984 202.336 40.432C202.756 40.8707 203.34 41.09 204.086 41.09C204.562 41.09 204.982 41.048 205.346 40.964C205.72 40.8707 206.102 40.74 206.494 40.572V41.65C206.112 41.818 205.734 41.9393 205.36 42.014C204.987 42.098 204.544 42.14 204.03 42.14C203.321 42.14 202.691 41.9953 202.14 41.706C201.599 41.4167 201.174 40.9873 200.866 40.418C200.568 39.8393 200.418 39.1347 200.418 38.304C200.418 37.4827 200.554 36.778 200.824 36.19C201.104 35.602 201.492 35.1493 201.986 34.832C202.49 34.5147 203.074 34.356 203.736 34.356ZM203.722 35.364C203.134 35.364 202.668 35.5553 202.322 35.938C201.986 36.3113 201.786 36.834 201.72 37.506H205.542C205.533 36.8713 205.384 36.358 205.094 35.966C204.805 35.5647 204.348 35.364 203.722 35.364ZM215.887 34.384C216.633 34.4493 217.282 34.6453 217.833 34.972C218.393 35.2987 218.827 35.7373 219.135 36.288C219.443 36.8387 219.597 37.492 219.597 38.248C219.597 39.3773 219.265 40.278 218.603 40.95C217.949 41.622 217.044 42.0093 215.887 42.112V45.36H214.683V42.112C213.945 42.0467 213.297 41.8553 212.737 41.538C212.177 41.2113 211.743 40.7727 211.435 40.222C211.127 39.662 210.973 39.004 210.973 38.248C210.973 37.1093 211.299 36.204 211.953 35.532C212.615 34.86 213.539 34.4773 214.725 34.384V31.36H215.887V34.384ZM214.725 35.406C213.866 35.49 213.241 35.7747 212.849 36.26C212.457 36.736 212.261 37.3987 212.261 38.248C212.261 39.0973 212.457 39.7647 212.849 40.25C213.25 40.7353 213.875 41.02 214.725 41.104V35.406ZM215.887 41.104C216.727 41.0107 217.343 40.7213 217.735 40.236C218.127 39.7507 218.323 39.088 218.323 38.248C218.323 37.408 218.122 36.75 217.721 36.274C217.329 35.798 216.717 35.5133 215.887 35.42V41.104ZM228.075 38.234C228.075 39.4753 227.758 40.4367 227.123 41.118C226.498 41.7993 225.649 42.14 224.575 42.14C223.913 42.14 223.32 41.9907 222.797 41.692C222.284 41.384 221.878 40.9407 221.579 40.362C221.281 39.774 221.131 39.0647 221.131 38.234C221.131 36.9927 221.444 36.036 222.069 35.364C222.695 34.692 223.544 34.356 224.617 34.356C225.299 34.356 225.896 34.51 226.409 34.818C226.932 35.1167 227.338 35.5553 227.627 36.134C227.926 36.7033 228.075 37.4033 228.075 38.234ZM222.405 38.234C222.405 39.1207 222.578 39.8253 222.923 40.348C223.278 40.8613 223.838 41.118 224.603 41.118C225.359 41.118 225.915 40.8613 226.269 40.348C226.624 39.8253 226.801 39.1207 226.801 38.234C226.801 37.3473 226.624 36.652 226.269 36.148C225.915 35.644 225.355 35.392 224.589 35.392C223.824 35.392 223.269 35.644 222.923 36.148C222.578 36.652 222.405 37.3473 222.405 38.234ZM235.071 35.532H232.621V42H231.403V35.532H228.981V34.496H235.071V35.532ZM242.937 38.234C242.937 39.4753 242.619 40.4367 241.985 41.118C241.359 41.7993 240.51 42.14 239.437 42.14C238.774 42.14 238.181 41.9907 237.659 41.692C237.145 41.384 236.739 40.9407 236.441 40.362C236.142 39.774 235.993 39.0647 235.993 38.234C235.993 36.9927 236.305 36.036 236.931 35.364C237.556 34.692 238.405 34.356 239.479 34.356C240.16 34.356 240.757 34.51 241.271 34.818C241.793 35.1167 242.199 35.5553 242.489 36.134C242.787 36.7033 242.937 37.4033 242.937 38.234ZM237.267 38.234C237.267 39.1207 237.439 39.8253 237.785 40.348C238.139 40.8613 238.699 41.118 239.465 41.118C240.221 41.118 240.776 40.8613 241.131 40.348C241.485 39.8253 241.663 39.1207 241.663 38.234C241.663 37.3473 241.485 36.652 241.131 36.148C240.776 35.644 240.216 35.392 239.451 35.392C238.685 35.392 238.13 35.644 237.785 36.148C237.439 36.652 237.267 37.3473 237.267 38.234ZM248.717 39.074C248.717 39.186 248.713 39.354 248.703 39.578C248.694 39.802 248.68 40.026 248.661 40.25C248.652 40.474 248.643 40.6513 248.633 40.782L252.651 34.496H254.163V42H253.015V37.576C253.015 37.4267 253.015 37.2307 253.015 36.988C253.025 36.7453 253.034 36.5073 253.043 36.274C253.053 36.0313 253.062 35.8493 253.071 35.728L249.081 42H247.555V34.496H248.717V39.074ZM260.379 39.074C260.379 39.186 260.375 39.354 260.365 39.578C260.356 39.802 260.342 40.026 260.323 40.25C260.314 40.474 260.305 40.6513 260.295 40.782L264.313 34.496H265.825V42H264.677V37.576C264.677 37.4267 264.677 37.2307 264.677 36.988C264.687 36.7453 264.696 36.5073 264.705 36.274C264.715 36.0313 264.724 35.8493 264.733 35.728L260.743 42H259.217V34.496H260.379V39.074ZM271.223 42.14C270.561 42.14 269.968 42.0047 269.445 41.734C268.932 41.4633 268.526 41.0433 268.227 40.474C267.938 39.9047 267.793 39.1767 267.793 38.29C267.793 37.366 267.947 36.6147 268.255 36.036C268.563 35.4573 268.979 35.0327 269.501 34.762C270.033 34.4913 270.635 34.356 271.307 34.356C271.69 34.356 272.059 34.398 272.413 34.482C272.768 34.5567 273.057 34.65 273.281 34.762L272.903 35.784C272.679 35.7 272.418 35.6207 272.119 35.546C271.821 35.4713 271.541 35.434 271.279 35.434C269.805 35.434 269.067 36.3813 269.067 38.276C269.067 39.1813 269.245 39.8767 269.599 40.362C269.963 40.838 270.5 41.076 271.209 41.076C271.62 41.076 271.979 41.034 272.287 40.95C272.605 40.866 272.894 40.7633 273.155 40.642V41.734C272.903 41.8647 272.623 41.9627 272.315 42.028C272.017 42.1027 271.653 42.14 271.223 42.14ZM280.12 35.532H277.67V42H276.452V35.532H274.03V34.496H280.12V35.532ZM287.985 38.234C287.985 39.4753 287.668 40.4367 287.033 41.118C286.408 41.7993 285.559 42.14 284.485 42.14C283.823 42.14 283.23 41.9907 282.707 41.692C282.194 41.384 281.788 40.9407 281.489 40.362C281.191 39.774 281.041 39.0647 281.041 38.234C281.041 36.9927 281.354 36.036 281.979 35.364C282.605 34.692 283.454 34.356 284.527 34.356C285.209 34.356 285.806 34.51 286.319 34.818C286.842 35.1167 287.248 35.5553 287.537 36.134C287.836 36.7033 287.985 37.4033 287.985 38.234ZM282.315 38.234C282.315 39.1207 282.488 39.8253 282.833 40.348C283.188 40.8613 283.748 41.118 284.513 41.118C285.269 41.118 285.825 40.8613 286.179 40.348C286.534 39.8253 286.711 39.1207 286.711 38.234C286.711 37.3473 286.534 36.652 286.179 36.148C285.825 35.644 285.265 35.392 284.499 35.392C283.734 35.392 283.179 35.644 282.833 36.148C282.488 36.652 282.315 37.3473 282.315 38.234ZM293.508 34.356C294.432 34.356 295.174 34.678 295.734 35.322C296.303 35.966 296.588 36.9367 296.588 38.234C296.588 39.5127 296.303 40.4833 295.734 41.146C295.174 41.8087 294.427 42.14 293.494 42.14C292.915 42.14 292.435 42.0327 292.052 41.818C291.679 41.594 291.385 41.3373 291.17 41.048H291.086C291.105 41.2067 291.123 41.4073 291.142 41.65C291.161 41.8927 291.17 42.1027 291.17 42.28V45.36H289.938V34.496H290.946L291.114 35.518H291.17C291.394 35.1913 291.688 34.916 292.052 34.692C292.416 34.468 292.901 34.356 293.508 34.356ZM293.284 35.392C292.519 35.392 291.977 35.6067 291.66 36.036C291.352 36.4653 291.189 37.1187 291.17 37.996V38.234C291.17 39.158 291.319 39.872 291.618 40.376C291.926 40.8707 292.491 41.118 293.312 41.118C293.769 41.118 294.143 40.992 294.432 40.74C294.731 40.488 294.95 40.1473 295.09 39.718C295.239 39.2793 295.314 38.78 295.314 38.22C295.314 37.3613 295.146 36.6753 294.81 36.162C294.483 35.6487 293.975 35.392 293.284 35.392ZM299.713 39.074C299.713 39.186 299.709 39.354 299.699 39.578C299.69 39.802 299.676 40.026 299.657 40.25C299.648 40.474 299.639 40.6513 299.629 40.782L303.647 34.496H305.159V42H304.011V37.576C304.011 37.4267 304.011 37.2307 304.011 36.988C304.021 36.7453 304.03 36.5073 304.039 36.274C304.049 36.0313 304.058 35.8493 304.067 35.728L300.077 42H298.551V34.496H299.713V39.074ZM308.709 39.074C308.709 39.186 308.705 39.354 308.695 39.578C308.686 39.802 308.672 40.026 308.653 40.25C308.644 40.474 308.635 40.6513 308.625 40.782L312.643 34.496H314.155V42H313.007V37.576C313.007 37.4267 313.007 37.2307 313.007 36.988C313.017 36.7453 313.026 36.5073 313.035 36.274C313.045 36.0313 313.054 35.8493 313.063 35.728L309.073 42H307.547V34.496H308.709V39.074ZM319 32.032H320.96V33.894H319V32.032ZM319.07 35.028H320.89V42H319.07V35.028ZM326.689 34.86C327.385 34.86 327.907 35.0817 328.257 35.525C328.612 35.9637 328.789 36.5867 328.789 37.394V42H326.997V37.548C326.997 37.1513 326.913 36.8363 326.745 36.603C326.577 36.365 326.33 36.246 326.003 36.246C325.784 36.246 325.579 36.302 325.387 36.414C325.201 36.526 325.051 36.6823 324.939 36.883C324.827 37.079 324.771 37.3007 324.771 37.548V42H322.979V35.028H324.603L324.638 35.945C325.119 35.2217 325.803 34.86 326.689 34.86ZM332.704 42.126C332.036 42.126 331.511 42.0443 331.129 41.881C330.751 41.713 330.482 41.5333 330.324 41.342L330.842 40.012C331.439 40.5067 332.074 40.754 332.746 40.754C333.049 40.754 333.273 40.6933 333.418 40.572C333.567 40.446 333.642 40.292 333.642 40.11C333.642 39.914 333.513 39.7343 333.257 39.571C333.005 39.403 332.629 39.2093 332.13 38.99C331.808 38.85 331.528 38.703 331.29 38.549C331.052 38.395 330.844 38.1873 330.667 37.926C330.494 37.66 330.408 37.338 330.408 36.96C330.408 36.54 330.51 36.1737 330.716 35.861C330.926 35.5483 331.229 35.308 331.626 35.14C332.022 34.972 332.498 34.888 333.054 34.888C333.385 34.888 333.695 34.9253 333.985 35C334.279 35.07 334.528 35.1587 334.734 35.266C334.939 35.3687 335.088 35.4667 335.182 35.56L334.706 36.82C334.491 36.6567 334.244 36.519 333.964 36.407C333.688 36.2903 333.404 36.232 333.11 36.232C332.76 36.232 332.512 36.2787 332.368 36.372C332.228 36.4607 332.158 36.61 332.158 36.82C332.158 37.03 332.26 37.205 332.466 37.345C332.676 37.485 332.998 37.6413 333.432 37.814C334.057 38.0613 334.538 38.3553 334.874 38.696C335.21 39.032 335.378 39.4427 335.378 39.928C335.378 40.334 335.284 40.7027 335.098 41.034C334.916 41.3607 334.624 41.6243 334.223 41.825C333.826 42.0257 333.32 42.126 332.704 42.126ZM339.207 42.21C338.689 42.21 338.283 42.1213 337.989 41.944C337.695 41.7667 337.487 41.5007 337.366 41.146C337.249 40.7867 337.191 40.3153 337.191 39.732V36.498H336.281V35.028H337.261L337.359 33.558L338.885 32.9V35.028H340.607V36.498H338.885V39.69C338.885 40.082 338.939 40.3597 339.046 40.523C339.153 40.6863 339.314 40.768 339.529 40.768C339.72 40.768 339.928 40.719 340.152 40.621C340.381 40.5183 340.57 40.404 340.719 40.278L341.055 41.692C340.85 41.8367 340.553 41.958 340.166 42.056C339.783 42.1587 339.464 42.21 339.207 42.21ZM343.752 42.196C343.337 42.196 342.987 42.1027 342.702 41.916C342.418 41.7293 342.203 41.4773 342.058 41.16C341.918 40.8427 341.848 40.488 341.848 40.096C341.848 39.7553 341.96 39.417 342.184 39.081C342.413 38.7403 342.817 38.451 343.395 38.213C343.974 37.975 344.756 37.856 345.74 37.856V37.534C345.74 37.1513 345.647 36.855 345.46 36.645C345.278 36.435 344.956 36.33 344.494 36.33C344.13 36.33 343.773 36.393 343.423 36.519C343.078 36.6403 342.824 36.792 342.66 36.974L342.1 35.63C342.418 35.4153 342.812 35.2333 343.283 35.084C343.755 34.9347 344.256 34.86 344.788 34.86C345.456 34.86 345.983 34.9627 346.37 35.168C346.762 35.3733 347.038 35.6627 347.196 36.036C347.355 36.4093 347.434 36.8713 347.434 37.422V42H345.936L345.81 41.006C345.563 41.4073 345.269 41.706 344.928 41.902C344.592 42.098 344.2 42.196 343.752 42.196ZM344.494 40.852C344.709 40.852 344.935 40.7657 345.173 40.593C345.411 40.4203 345.6 40.2033 345.74 39.942V38.948C345.675 38.9387 345.563 38.934 345.404 38.934C344.933 38.934 344.511 39.0133 344.137 39.172C343.769 39.326 343.584 39.578 343.584 39.928C343.584 40.2593 343.657 40.4973 343.801 40.642C343.951 40.782 344.182 40.852 344.494 40.852ZM350.277 43.204C350.711 43.4747 351.197 43.61 351.733 43.61C352.335 43.61 352.783 43.4537 353.077 43.141C353.376 42.8283 353.525 42.336 353.525 41.664V40.572C353.409 41.0013 353.206 41.3607 352.916 41.65C352.627 41.9393 352.223 42.084 351.705 42.084C351.155 42.084 350.667 41.9603 350.242 41.713C349.822 41.4657 349.489 41.076 349.241 40.544C348.999 40.012 348.877 39.34 348.877 38.528C348.877 37.702 348.999 37.016 349.241 36.47C349.484 35.9193 349.815 35.5133 350.235 35.252C350.655 34.9907 351.131 34.86 351.663 34.86C352.027 34.86 352.34 34.9253 352.601 35.056C352.867 35.1867 353.075 35.357 353.224 35.567C353.378 35.7723 353.479 35.994 353.525 36.232L353.721 35.028H355.093V41.664C355.093 42.3827 354.972 43.001 354.729 43.519C354.487 44.0417 354.127 44.4407 353.651 44.716C353.175 44.996 352.592 45.136 351.901 45.136C351.393 45.136 350.931 45.073 350.515 44.947C350.105 44.8257 349.764 44.6833 349.493 44.52L350.277 43.204ZM352.055 40.712C352.466 40.712 352.786 40.5207 353.014 40.138C353.243 39.7507 353.357 39.2047 353.357 38.5C353.357 37.8093 353.252 37.2657 353.042 36.869C352.837 36.4723 352.527 36.274 352.111 36.274C351.855 36.274 351.619 36.3487 351.404 36.498C351.19 36.6473 351.015 36.89 350.879 37.226C350.749 37.5573 350.683 37.9867 350.683 38.514C350.683 39.242 350.807 39.7903 351.054 40.159C351.306 40.5277 351.64 40.712 352.055 40.712ZM357.048 35.028H358.63L358.714 36.26C358.863 35.9007 359.099 35.5927 359.421 35.336C359.743 35.0747 360.198 34.944 360.786 34.944C361.019 34.944 361.234 34.9813 361.43 35.056L361.038 36.89C360.959 36.8107 360.863 36.7547 360.751 36.722C360.644 36.6847 360.511 36.666 360.352 36.666C360.025 36.666 359.743 36.736 359.505 36.876C359.272 37.0113 359.094 37.17 358.973 37.352C358.856 37.534 358.798 37.6833 358.798 37.8V42H357.048V35.028ZM363.864 42.196C363.448 42.196 363.098 42.1027 362.814 41.916C362.529 41.7293 362.314 41.4773 362.17 41.16C362.03 40.8427 361.96 40.488 361.96 40.096C361.96 39.7553 362.072 39.417 362.296 39.081C362.524 38.7403 362.928 38.451 363.507 38.213C364.085 37.975 364.867 37.856 365.852 37.856V37.534C365.852 37.1513 365.758 36.855 365.572 36.645C365.39 36.435 365.068 36.33 364.606 36.33C364.242 36.33 363.885 36.393 363.535 36.519C363.189 36.6403 362.935 36.792 362.772 36.974L362.212 35.63C362.529 35.4153 362.923 35.2333 363.395 35.084C363.866 34.9347 364.368 34.86 364.9 34.86C365.567 34.86 366.094 34.9627 366.482 35.168C366.874 35.3733 367.149 35.6627 367.308 36.036C367.466 36.4093 367.546 36.8713 367.546 37.422V42H366.048L365.922 41.006C365.674 41.4073 365.38 41.706 365.04 41.902C364.704 42.098 364.312 42.196 363.864 42.196ZM364.606 40.852C364.82 40.852 365.047 40.7657 365.285 40.593C365.523 40.4203 365.712 40.2033 365.852 39.942V38.948C365.786 38.9387 365.674 38.934 365.516 38.934C365.044 38.934 364.622 39.0133 364.249 39.172C363.88 39.326 363.696 39.578 363.696 39.928C363.696 40.2593 363.768 40.4973 363.913 40.642C364.062 40.782 364.293 40.852 364.606 40.852ZM377.179 34.86C377.865 34.86 378.383 35.0817 378.733 35.525C379.087 35.9637 379.265 36.5867 379.265 37.394V42H377.487V37.576C377.487 37.17 377.407 36.8527 377.249 36.624C377.095 36.3907 376.857 36.274 376.535 36.274C376.315 36.274 376.105 36.33 375.905 36.442C375.709 36.554 375.55 36.7103 375.429 36.911C375.307 37.107 375.247 37.3287 375.247 37.576V42H373.455V37.576C373.455 37.1793 373.366 36.8597 373.189 36.617C373.016 36.3697 372.769 36.246 372.447 36.246C372.223 36.246 372.017 36.3043 371.831 36.421C371.644 36.533 371.495 36.6917 371.383 36.897C371.271 37.0977 371.215 37.324 371.215 37.576V42H369.423V35.028H371.033L371.075 35.952C371.546 35.224 372.232 34.86 373.133 34.86C373.599 34.86 373.989 34.9627 374.302 35.168C374.619 35.3733 374.857 35.672 375.016 36.064C375.492 35.2613 376.213 34.86 377.179 34.86Z" fill="#292929"/>
<circle cx="19" cy="25" r="18" stroke="#E62F5F" stroke-width="2"/>
<path d="M25.3782 24.8534L25.4009 24.6597C25.4009 24.584 25.3989 24.5087 25.3961 24.4337C25.3992 24.3883 25.4009 24.3387 25.4009 24.2849V23.8311V23.7916V22.5914C25.4009 20.3441 24.4853 17.3387 20.7039 17.1508V17.1415H18.9306C14.8303 17.1415 13.6856 19.8605 13.6856 22.4007V24.3136C13.6856 24.5038 13.7472 24.6848 13.8344 24.7821L13.843 24.8557H13.8429C13.2837 24.9648 12.8613 25.4577 12.8613 26.049C12.8613 26.7202 13.4057 27.2648 14.0766 27.2648C14.093 27.2648 14.1088 27.263 14.125 27.2623L14.1782 27.716C14.1782 29.3622 14.9104 30.8374 16.0668 31.8337C17.0195 32.6619 18.2637 33.1635 19.6252 33.1635C22.6214 33.1635 25.0516 30.734 25.0516 27.7374L25.066 27.5229L25.0966 27.2614C25.1188 27.2626 25.1408 27.2647 25.1634 27.2647C25.8343 27.2647 26.3786 26.7202 26.3786 26.049C26.3786 25.4513 25.9465 24.9551 25.3782 24.8534Z" fill="black"/>
<path d="M27.3357 23.7785C26.8969 23.4963 26.3579 23.2009 25.7101 22.927L24.0859 14.7411C24.0218 14.4183 23.7422 14.196 23.4296 14.1889C23.3329 14.1866 23.2378 14.2129 23.1496 14.2527C22.7323 14.4411 20.9441 15.2066 19.4404 15.2066C17.9154 15.2066 15.9945 14.4183 15.5886 14.2441C15.5227 14.2158 15.4536 14.1944 15.382 14.1902C15.0391 14.17 14.724 14.4112 14.6661 14.7636L13.3134 22.9885C12.6208 23.285 12.0379 23.6061 11.5591 23.9129C11.2318 24.1226 11.4693 24.9237 11.8392 24.8043C13.4399 24.2876 16.0032 24.1967 19.5529 24.1967C23.1072 24.1967 25.5622 24.2187 27.0618 24.6719C27.4303 24.7832 27.6595 23.9867 27.3357 23.7785Z" fill="#2B3B47"/>
<path d="M26.896 33.2375L27.8821 29.6939C28.0389 29.1294 27.6376 28.5716 27.1894 28.7321L24.8739 29.5657C24.8173 29.5847 24.7592 29.5879 24.6983 29.6328H24.6983L24.0075 29.8761C20.6537 31.0032 17.7909 30.845 14.0774 29.515L11.897 28.7331C11.4489 28.5726 11.0466 29.1299 11.2035 29.6944L12.1651 33.1523C10.9123 33.8492 9.97656 34.9543 9.97656 36.6863V36.6881C9.97656 36.7859 10.0538 36.8652 10.1516 36.8652H28.7637C28.8614 36.8652 28.9336 36.7859 28.9336 36.6882V36.6863C28.9336 35.0233 28.0736 33.9383 26.896 33.2375Z" fill="#2B3B47"/>
</svg>
